<svg width="200" height="200" viewBox="0 0 200 200" xmlns="http://www.w3.org/2000/svg" role="img" aria-labelledby="title desc">
  <title id="title">Checkers Logo</title>
  <desc id="desc">Stylized checkers board with two crowned pieces</desc>
  <defs>
    <linearGradient id="board" x1="0%" y1="0%" x2="100%" y2="100%">
      <stop offset="0%" stop-color="#0f172a"/>
      <stop offset="100%" stop-color="#1e293b"/>
    </linearGradient>
    <linearGradient id="accent" x1="0%" y1="0%" x2="100%" y2="100%">
      <stop offset="0%" stop-color="#6366f1"/>
      <stop offset="100%" stop-color="#a855f7"/>
    </linearGradient>
    <filter id="glow" x="-20%" y="-20%" width="140%" height="140%">
      <feDropShadow dx="0" dy="0" stdDeviation="6" flood-color="#a855f7" flood-opacity="0.35"/>
    </filter>
  </defs>
  <rect x="16" y="16" width="168" height="168" rx="18" fill="url(#board)" stroke="#94a3b8" stroke-width="4"/>
  <g transform="translate(32 32)">
    <rect x="0" y="0" width="32" height="32" fill="#0b1224"/>
    <rect x="32" y="0" width="32" height="32" fill="#111827"/>
    <rect x="64" y="0" width="32" height="32" fill="#0b1224"/>
    <rect x="96" y="0" width="32" height="32" fill="#111827"/>
    <rect x="0" y="32" width="32" height="32" fill="#111827"/>
    <rect x="32" y="32" width="32" height="32" fill="#0b1224"/>
    <rect x="64" y="32" width="32" height="32" fill="#111827"/>
    <rect x="96" y="32" width="32" height="32" fill="#0b1224"/>
    <rect x="0" y="64" width="32" height="32" fill="#0b1224"/>
    <rect x="32" y="64" width="32" height="32" fill="#111827"/>
    <rect x="64" y="64" width="32" height="32" fill="#0b1224"/>
    <rect x="96" y="64" width="32" height="32" fill="#111827"/>
    <rect x="0" y="96" width="32" height="32" fill="#111827"/>
    <rect x="32" y="96" width="32" height="32" fill="#0b1224"/>
    <rect x="64" y="96" width="32" height="32" fill="#111827"/>
    <rect x="96" y="96" width="32" height="32" fill="#0b1224"/>
  </g>
  <g filter="url(#glow)">
    <circle cx="82" cy="118" r="22" fill="url(#accent)" stroke="#c084fc" stroke-width="4"/>
    <circle cx="126" cy="78" r="22" fill="#fbbf24" stroke="#f59e0b" stroke-width="4"/>
    <path d="M72 110l10-12 10 12 10-12 10 12" stroke="#e0f2fe" stroke-width="4" stroke-linecap="round" stroke-linejoin="round" fill="none"/>
    <path d="M116 70l10-12 10 12 10-12 10 12" stroke="#111827" stroke-width="4" stroke-linecap="round" stroke-linejoin="round" fill="none"/>
  </g>
  <rect x="16" y="16" width="168" height="168" rx="18" fill="none" stroke="url(#accent)" stroke-width="3" opacity="0.65"/>
</svg>

